<mxfile host="65bd71144e">
    <diagram id="KtSD8-fFhAQRHsqNfhV6" name="PÃ¡gina-1">
        <mxGraphModel dx="662" dy="411" grid="1" gridSize="10" guides="1" tooltips="1" connect="1" arrows="1" fold="1" page="1" pageScale="1" pageWidth="1169" pageHeight="827" math="0" shadow="0">
            <root>
                <mxCell id="0"/>
                <mxCell id="1" parent="0"/>
                <mxCell id="11" value="" style="edgeStyle=none;html=1;" edge="1" parent="1" source="2" target="7">
                    <mxGeometry relative="1" as="geometry"/>
                </mxCell>
                <mxCell id="2" value="INICIO&amp;nbsp;" style="ellipse;whiteSpace=wrap;html=1;fillColor=#66FFFF;" vertex="1" parent="1">
                    <mxGeometry x="220" y="40" width="120" height="80" as="geometry"/>
                </mxCell>
                <mxCell id="13" value="" style="edgeStyle=none;html=1;" edge="1" parent="1" source="5" target="10">
                    <mxGeometry relative="1" as="geometry"/>
                </mxCell>
                <mxCell id="5" value="nd: 0.3*np + 0.1*au + 0.2*bi&amp;nbsp;" style="rounded=0;whiteSpace=wrap;html=1;fillColor=#009999;" vertex="1" parent="1">
                    <mxGeometry x="190" y="260" width="190" height="60" as="geometry"/>
                </mxCell>
                <mxCell id="12" value="" style="edgeStyle=none;html=1;" edge="1" parent="1" source="7" target="5">
                    <mxGeometry relative="1" as="geometry"/>
                </mxCell>
                <mxCell id="7" value="nc,cp,na,au,bi&amp;nbsp;" style="shape=parallelogram;perimeter=parallelogramPerimeter;whiteSpace=wrap;html=1;fixedSize=1;fillColor=#99CCFF;" vertex="1" parent="1">
                    <mxGeometry x="210" y="160" width="140" height="60" as="geometry"/>
                </mxCell>
                <mxCell id="9" value="FIN&amp;nbsp;" style="ellipse;whiteSpace=wrap;html=1;fillColor=#FFFF66;" vertex="1" parent="1">
                    <mxGeometry x="240" y="480" width="120" height="80" as="geometry"/>
                </mxCell>
                <mxCell id="14" value="" style="edgeStyle=none;html=1;" edge="1" parent="1" source="10" target="9">
                    <mxGeometry relative="1" as="geometry"/>
                </mxCell>
                <mxCell id="10" value="nd" style="shape=document;whiteSpace=wrap;html=1;boundedLbl=1;fillColor=#B3FF66;" vertex="1" parent="1">
                    <mxGeometry x="230" y="360" width="120" height="80" as="geometry"/>
                </mxCell>
            </root>
        </mxGraphModel>
    </diagram>
</mxfile>